<?xml version="1.0" encoding="UTF-8"?>
<svg id="Calque_1" data-name="Calque 1" xmlns="http://www.w3.org/2000/svg" xmlns:xlink="http://www.w3.org/1999/xlink" viewBox="0 0 723.29 339.74">
  <defs>
    <style>
      .cls-1 {
        fill: url(#Dégradé_sans_nom_13);
      }

      .cls-2 {
        fill: #f9f5fc;
      }

      .cls-3 {
        fill: url(#Dégradé_sans_nom_13-4);
      }

      .cls-4 {
        fill: url(#Dégradé_sans_nom_13-3);
      }

      .cls-5 {
        fill: url(#Dégradé_sans_nom_13-2);
      }
    </style>
    <linearGradient id="Dégradé_sans_nom_13" data-name="Dégradé sans nom 13" x1="541.33" y1="26.67" x2="481.67" y2="271.47" gradientUnits="userSpaceOnUse">
      <stop offset="0" stop-color="#ec94fe"/>
      <stop offset="1" stop-color="#4416c9"/>
    </linearGradient>
    <linearGradient id="Dégradé_sans_nom_13-2" data-name="Dégradé sans nom 13" x1="670.88" y1="58.24" x2="611.22" y2="303.04" xlink:href="#Dégradé_sans_nom_13"/>
    <linearGradient id="Dégradé_sans_nom_13-3" data-name="Dégradé sans nom 13" x1="524.46" y1="22.56" x2="464.8" y2="267.36" xlink:href="#Dégradé_sans_nom_13"/>
    <linearGradient id="Dégradé_sans_nom_13-4" data-name="Dégradé sans nom 13" x1="626.98" y1="36.53" x2="679.09" y2="36.53" xlink:href="#Dégradé_sans_nom_13"/>
  </defs>
  <g>
    <path class="cls-2" d="M318.6,165.94c28.09,20.45,31.93,61.48,13.47,89.17-12.17,18.26-32.87,28.76-54.73,28.69l-59.02-.18-.03-132.4,59.47.46c15.18.12,28.99,5.21,40.84,14.26ZM313.32,210.77c-3.58-21.88-23.28-32.44-42.98-32.43l-23.79.02.25,78.98c8.71,1.44,16.31.25,24.46.12,12.02-.18,23.71-3.3,32.2-12.05,8.8-9.07,12.01-21.52,9.86-34.64Z"/>
    <path class="cls-2" d="M147.23,283.65l-105.59-.13c.23-22.85-3.32-17.32,6.75-31.53l52.84-74.55-59.55-.17-.04-25.91,99.87-.03.04,22.12-60.18,84.33,65.96.33-.1,25.55Z"/>
    <rect class="cls-2" x="113.05" y="202.52" width="132.62" height="30.15" transform="translate(-38.44 396.7) rotate(-89.93)"/>
  </g>
  <g>
    <path class="cls-1" d="M422.61,246.21c7.15,11.84,24.35,13.82,35.64,8.36,14.67-7.1,14.79-19.6,13.61-34.09-3.49.41-3.76,3.9-5.81,4.28-3.61.67-5.79,2.61-9.54,4.9-4.41-2.41,9.96-8.23,12.83-10.11l14.66-9.56c22.32-14.54,44.59-28.16,64.52-46.24,20.87-18.93,37.31-41.29,51.34-66.9l-47.75,8.23c-3.06.53-5.77,2.34-9.2.98,1.52-1.66,3.56-1.02,5.65-2.13,31.75-16.88,62.62-34.01,93.57-53.53,1.25,13.99.79,27.2.87,40.93l.22,37.2c-7.89-8.37-11.8-11.03-19.9-20.64-23.77,58.05-71.01,113.68-120.89,151.53-11.13,8.45-21.85,16.23-34.17,22.51-26.33,13.41-62.72,7.1-77.22-21.38-4.07-7.99-6.52-17.06-6.55-26.42l-.28-82.7,33.94-.13.38,76.76c.03,6.26.76,12.62,4.08,18.13Z"/>
    <path class="cls-5" d="M605.55,254.04c-1.55,3.8.43,7.39.18,11.09-.41,6.28-.88,12-.68,18.33l-31.2-.17-.21-60.09c-.01-3.56-.38-8.51,1.01-11.8,4.38-6.97,9.93-13,14.95-19.74l29.33-39.43c11.35-.12,21.92-1.01,33.29.27,14.06,1.58,27.74,8.73,35.32,21.04,11.86,19.27,7.93,45.36-8.82,60.05-10.27,9-22.36,13.12-35.65,13.27l-38.08.42c.49,2.27,1.47,4.52.56,6.75ZM655.1,180.91c-5.16-3.01-10.93-3.9-17.05-3.9l-32.97-.02.35,41.07h39.4c4.71,0,9.41-2.39,13.01-4.88,8.44-5.84,9.95-24.89-2.74-32.28Z"/>
    <path class="cls-4" d="M505.87,184.79l-19.76,12.43c-4.29,2.7-9.34,4.04-12.55,8.16-1.14-1.95-1.17-3.27-1.18-5.12l-.22-49.05,33.38.26c-.74,4.66.33,8.61.21,12.72-.2,6.86-1.12,13.18.11,20.6Z"/>
  </g>
  <path class="cls-3" d="M653.34,56.51c-1.04-2.43.82-5.11-.47-7.12-1.91-2.96-6.57-3.33-8.63-5.72-1.22-1.42-.94-4.18-2.13-4.95-4.53-2.9-10.78.9-15.13-1.88,13.22-2.29,12.37,3.98,20.36-8.03.76-1.14,3.74-.51,4.44-1.4,3.24-4.12-2.37-9.79,2.18-10.86.6,3.54-1.58,9.51,1.51,12.1l8.03,6.72c3.96,3.32,10.53-.37,15.61,1.49-4.67,1.7-9.89,1.31-15.01.98-3.52-.23-3.53,3.86-4.68,5.61-.98,1.48-3.32,1.15-3.97,2-2.38,3.09.97,7.53-2.08,11.05Z"/>
</svg>