<?xml version="1.0" encoding="UTF-8"?>
<svg id="Calque_1" data-name="Calque 1" xmlns="http://www.w3.org/2000/svg" xmlns:xlink="http://www.w3.org/1999/xlink" viewBox="0 0 437.07 330.51">
  <defs>
    <style>
      .cls-1 {
        fill: url(#Dégradé_sans_nom_28-2);
      }

      .cls-2 {
        fill: url(#Dégradé_sans_nom_28);
      }
    </style>
    <linearGradient id="Dégradé_sans_nom_28" data-name="Dégradé sans nom 28" x1="21.69" y1="91.16" x2="138.51" y2="338.55" gradientUnits="userSpaceOnUse">
      <stop offset="0" stop-color="#955fa3"/>
      <stop offset=".5" stop-color="#564c9b"/>
      <stop offset="1" stop-color="#419fd9"/>
    </linearGradient>
    <linearGradient id="Dégradé_sans_nom_28-2" data-name="Dégradé sans nom 28" x1="162.49" y1="24.46" x2="279.31" y2="271.84" xlink:href="#Dégradé_sans_nom_28"/>
  </defs>
  <path class="cls-2" d="M78.43,149c-1.39-3.89-6.22-7.89-10.58-8.02-11.49-.35-22.28-.49-33.68.01-5.83.26-11.72,4.86-12.02,10.69-.37,7.25,6.23,11.24,12.74,11.19l35.24-.27c6.31-1.92,10.53-7.37,8.3-13.6Z"/>
  <path class="cls-1" d="M379.03,161.7c-10.5-8.57,2.55-5.31,18.7-26.3,10.69-13.89,19.38-35.55,16.72-53.18-1.77-11.74-5.62-22.35-14.23-31.28-10.17-10.55-25.7-19.54-42.01-19.6l-207.83-.74c-2.63,0-4.52,2.72-5.26,4.08-.89,1.65.38,4.68,1.61,6.24l17.84,22.61c6.89,8.74,18.65,15.56,31.06,15.63l141.02.89c4.39.03,9.31,2.39,12.7,4.1,7.92,4,10.78,12.25,9.62,20.75-1.77,13.01-11.75,21.33-23.26,26.59-10.09,4.62-20.59,5.34-31.8,5.29-9.87-.04-19.59.65-29.35,1.64-6.39.65-13.14-.7-19.29.64-7.75,1.68-9.41,10.19-7.6,16.8,4.9,17.92,22.93,26.1,39.73,26.51l26.48.66c6.42.16,12.93,2.85,18.32,6.63,5.17,3.62,8.93,11.45,8.45,17.98-1.01,13.75-9.38,24.98-21.24,31.7-7.8,4.41-17.19,8.01-26.67,8.03l-94.77.25c-3.65,0-2.84-5.94-2.25-8.11l23.24-84.82c5.75-20.98-2.38-41.89-23.26-50.01-5.19-2.02-11.72-3.75-17.77-3.76l-75.89-.16c-4.27,0-7.46,3.15-8.88,5.78-1.95,3.63-2,8.35.57,11.36,2.47,2.9,6.44,4.65,10.33,4.68l52.58.44c5.04.04,8.06,5.01,7.88,9.04-.17,3.88-3.14,8.33-7.88,8.38l-48.53.57c-3.02.04-6.68,2.17-9.21,4.27-2.8,2.32-2.53,8.13-1.24,10.77,1.15,2.36,3.85,6.4,7.41,6.43l57.68.51c2.99.03,6.8,2.23,8.84,3.97,2.62,2.24,3.07,7.48,1.35,9.92-1.33,1.88-4.1,5.49-7.57,5.51l-92.87.7c-5.91.04-10.28,6.46-10.38,11.12-.11,4.97,4.23,11.3,10.16,11.34l80.09.6c5.85.04,10.01,6.49,9.51,10.86-.57,4.94-4.45,9.62-10.06,9.63l-101.75.2c-4.19,0-7.92,2.75-10.88,5.16-2.87,2.34-2.9,8.19-1.54,11.04,1.12,2.33,4.17,6.26,7.88,6.29l76.12.59c3.59.03,6.08,2.12,7.25,4.35,1.51,2.9,1.47,5.93-1.03,8.58l-17.82,18.85-9.65,10.43c-1.6,1.73-.1,4.38.95,5.66,1.32,1.62,2.88,2.12,5.76,2.11l185.23-.74c19.45-.08,36.8-8.14,53.52-16.45,7.5-3.73,13.64-9,19.71-14.38,17.53-15.53,29.65-37.52,32.08-61.11,1.78-17.23-5.08-34.5-18.61-45.54Z"/>
</svg>